<?xml version="1.0" encoding="UTF-8" standalone="no"?>
<!-- Created with Inkscape (http://www.inkscape.org/) -->

<svg
   version="1.1"
   id="svg1"
   width="256"
   height="256"
   viewBox="0 0 256 256"
   xmlns="http://www.w3.org/2000/svg"
   xmlns:svg="http://www.w3.org/2000/svg">
  <defs
     id="defs1" />
  <g
     id="g1">
    <g
       id="g286"
       transform="matrix(16,0,0,16,-294.1564,-179.60512)">
      <path
         style="opacity:0;fill:#fefefe"
         d="m 18.384775,19.22532 v -8 h 8 8 v 8 8 h -8 -8 z m 8.78125,3.476716 c 0.71257,-0.09012 1.473342,-0.388802 2.015674,-0.791355 0.554649,-0.411696 1.018679,-0.966883 1.330282,-1.591611 0.18802,-0.376957 0.343123,-0.878659 0.366731,-1.186239 l 0.0079,-0.102824 -0.02045,0.0338 c -0.04231,0.06996 -0.144463,0.166109 -0.206321,0.194201 -0.08623,0.03916 -0.245469,0.03901 -0.33207,-3.11e-4 -0.03565,-0.01619 -0.09731,-0.06146 -0.137022,-0.100613 -0.07109,-0.07008 -0.11847,-0.0817 -0.11847,-0.02906 0,0.03721 -0.02157,0.0075 -0.03906,-0.05378 l -0.01563,-0.05476 -0.06796,0.09653 c -0.05233,0.07433 -0.08647,0.105155 -0.148438,0.134008 -0.173387,0.08073 -0.373371,0.03461 -0.48524,-0.111896 l -0.05488,-0.07187 -0.0081,0.03655 c -0.0045,0.02011 -0.01586,0.08226 -0.02534,0.138117 -0.0611,0.359937 -0.31579,0.816188 -0.632311,1.132709 -0.218252,0.218252 -0.487932,0.403745 -0.767828,0.528131 -0.480615,0.213587 -1.076763,0.277678 -1.549525,0.166588 l -0.130253,-0.03061 -0.05106,0.043 c -0.02808,0.02365 -0.113607,0.09646 -0.190059,0.161814 -0.421622,0.360399 -0.893608,0.635563 -1.398129,0.815097 -0.102139,0.03635 -0.185816,0.07079 -0.185947,0.07654 -3.1e-4,0.01351 0.343439,0.181636 0.515385,0.252076 0.419267,0.171758 0.946238,0.299993 1.390625,0.3384 0.221402,0.01914 0.698172,0.0076 0.9375,-0.02265 z m -4.460478,-0.455617 c 0.01786,-0.0069 -0.01343,-0.02359 -0.09638,-0.05152 -0.198537,-0.06687 -0.388435,-0.172506 -0.520068,-0.289305 -0.07742,-0.06869 -0.171929,-0.167003 -0.199595,-0.207617 -0.02864,-0.04204 -0.05166,-0.04554 -0.05146,-0.0078 2.78e-4,0.05181 0.09676,0.195636 0.200526,0.298942 0.06947,0.06916 0.142935,0.12312 0.221202,0.162474 0.156624,0.07875 0.369608,0.124066 0.445772,0.09484 z m 1.085478,-0.184539 c 0.886391,-0.107735 1.853033,-0.648841 2.48115,-1.388895 0.251365,-0.296161 0.52456,-0.767794 0.625871,-1.080478 l 0.04556,-0.140625 0.513552,-0.0078 0.513552,-0.0078 0.04687,-0.02595 c 0.14783,-0.08184 0.201435,-0.234004 0.134415,-0.381567 -0.02865,-0.06308 -0.114431,-0.143992 -0.220353,-0.20784 l -0.05469,-0.03297 -0.378907,-5.9e-5 c -0.25691,-3.9e-5 -0.378906,-0.0054 -0.378906,-0.01665 0,-0.0091 0.01514,-0.08252 0.03365,-0.163091 l 0.03365,-0.146497 0.384803,-0.0049 0.384803,-0.0049 0.07764,-0.03999 c 0.128812,-0.06635 0.183228,-0.18057 0.148126,-0.31093 -0.02216,-0.08231 -0.133746,-0.205712 -0.242361,-0.268028 l -0.07813,-0.04482 -0.261719,-1.47e-4 c -0.179499,-10e-5 -0.261719,-0.0055 -0.261719,-0.0173 0,-0.0094 0.02825,-0.07447 0.06277,-0.144532 0.148875,-0.302092 0.442768,-0.635779 0.726662,-0.825054 0.281513,-0.187688 0.571968,-0.312527 1.053522,-0.452808 0.0898,-0.02616 0.230424,-0.07434 0.3125,-0.107073 0.18102,-0.07219 0.852116,-0.401599 0.964426,-0.473393 0.464254,-0.296774 0.764421,-0.786129 0.834999,-1.361279 0.04402,-0.35874 -0.07264,-0.814892 -0.283363,-1.108008 -0.03593,-0.04997 -0.06818,-0.088 -0.07167,-0.08451 -0.0035,0.0035 0.01769,0.05844 0.04707,0.122111 0.02938,0.06367 0.06496,0.171695 0.07905,0.240062 0.02986,0.144855 0.03482,0.437993 0.01,0.588345 -0.08602,0.520144 -0.449344,0.947429 -1.007656,1.185059 -0.181244,0.07714 -0.213967,0.08018 -0.110087,0.01022 0.101031,-0.06804 0.280667,-0.261335 0.349263,-0.375823 0.06656,-0.111086 0.149952,-0.330925 0.182379,-0.480773 0.03279,-0.151512 0.0334,-0.509792 0.0012,-0.676337 -0.113642,-0.586932 -0.493309,-1.081468 -0.990192,-1.289776 -0.145065,-0.06082 -0.277843,-0.09182 -0.395163,-0.09227 l -0.08594,-3.3e-4 0.113679,0.06197 c 0.405451,0.221017 0.652741,0.49689 0.793784,0.885532 0.08235,0.226908 0.105221,0.38132 0.09567,0.64581 -0.0119,0.329589 -0.07899,0.540392 -0.257487,0.809021 -0.08394,0.126323 -0.123813,0.162749 -0.07515,0.06865 0.108567,-0.209945 0.133912,-0.58448 0.05858,-0.865722 -0.05237,-0.195541 -0.195308,-0.476096 -0.325229,-0.638366 -0.0866,-0.108161 -0.193855,-0.221595 -0.20191,-0.21354 -0.0045,0.0045 0.02003,0.06697 0.05444,0.13889 0.193479,0.404307 0.225715,0.869406 0.08162,1.177633 -0.09537,0.204012 -0.239531,0.312008 -0.581467,0.435606 -0.451659,0.163259 -0.858691,0.355234 -1.178412,0.555794 -0.654365,0.41048 -1.179965,0.951859 -1.452776,1.496389 -0.114674,0.228887 -0.235427,0.573502 -0.261605,0.746586 l -0.0047,0.03125 -0.265447,0.0078 -0.265446,0.0078 -0.05875,0.0292 c -0.09438,0.04691 -0.153724,0.134748 -0.163443,0.241938 -0.0098,0.108039 0.01563,0.172933 0.102135,0.260665 0.08654,0.08777 0.159672,0.114149 0.335283,0.120958 0.08346,0.0032 0.155399,0.0095 0.159857,0.01399 0.0045,0.0045 -0.0073,0.07951 -0.02604,0.166772 l -0.03414,0.158666 -0.141825,8.7e-5 c -0.078,4.8e-5 -0.16995,0.0079 -0.204325,0.01735 -0.132829,0.0367 -0.233626,0.211904 -0.195979,0.340657 0.03607,0.123344 0.152534,0.238043 0.285822,0.281481 0.06559,0.02137 0.06548,0.02119 0.04075,0.06848 -0.102574,0.196133 -0.345212,0.472547 -0.568088,0.647169 -0.396863,0.310939 -1.084802,0.508127 -1.690157,0.484458 -0.206298,-0.0081 -0.323269,-0.03189 -0.453809,-0.09242 -0.320461,-0.148604 -0.586769,-0.411402 -0.752549,-0.742629 -0.05566,-0.111219 -0.126809,-0.344262 -0.127162,-0.416538 -1.32e-4,-0.02697 -0.0057,-0.0577 -0.01248,-0.0683 -0.01851,-0.02914 -0.117914,0.167336 -0.167866,0.331768 l -0.04272,0.140625 5.8e-5,0.171875 c 4.3e-5,0.128718 0.0087,0.203263 0.03446,0.296875 0.04931,0.179168 0.170767,0.417446 0.287543,0.564107 0.106395,0.133623 0.311801,0.309243 0.457307,0.390992 0.134226,0.07541 0.13405,0.08165 -0.0021,0.0742 -0.338399,-0.0185 -0.70572,-0.261825 -0.912319,-0.604342 -0.04763,-0.07896 -0.05731,-0.06319 -0.02388,0.03887 0.145294,0.443523 0.584669,0.871023 1.09043,1.060957 l 0.137887,0.05178 -0.03632,0.01357 c -0.01998,0.0075 -0.07618,0.01133 -0.124893,0.0086 -0.116267,-0.0065 -0.0972,0.01747 0.06265,0.07889 0.378241,0.14534 0.755542,0.188302 1.189979,0.135499 z m 6.553543,-0.113904 c 0.147369,-0.130533 0.430832,-0.487167 0.430832,-0.542043 0,-0.0113 -0.01135,-0.02996 -0.02523,-0.04147 l -0.02523,-0.02094 -0.02555,0.03261 c -0.180937,0.23093 -0.259294,0.32603 -0.339144,0.411606 -0.127874,0.137044 -0.150884,0.172304 -0.129364,0.198234 0.02583,0.03112 0.04161,0.02584 0.113685,-0.038 z M 21.399784,21.35065 c 0.03892,-0.02083 0.06542,-0.10161 0.0482,-0.146912 -0.0195,-0.05128 -0.09608,-0.08073 -0.143819,-0.0553 -0.05045,0.02688 -0.07455,0.06187 -0.07514,0.109091 -0.001,0.08181 0.09453,0.133917 0.170762,0.09312 z m 9.752755,-0.590174 c 0.03829,-0.04631 0.09417,-0.17442 0.08862,-0.203196 -0.0033,-0.01723 -0.01956,-0.02727 -0.0441,-0.02727 h -0.03885 l -0.05206,0.106233 -0.05206,0.106232 0.01882,0.02267 c 0.02506,0.0302 0.05211,0.02861 0.07963,-0.0047 z m -9.939639,-0.0058 c 0,-0.0097 -0.02366,-0.08876 -0.05259,-0.175782 -0.02892,-0.08703 -0.06185,-0.196901 -0.07316,-0.244166 -0.02859,-0.119396 -0.04617,-0.131081 -0.04585,-0.03047 5.64e-4,0.176783 0.09222,0.467969 0.147302,0.467969 0.01337,0 0.0243,-0.0079 0.0243,-0.01755 z m 0.39304,-0.212917 c -0.16118,-0.307999 -0.23533,-0.661165 -0.215298,-1.025432 0.01078,-0.195932 0.03232,-0.375148 0.05092,-0.423631 0.0072,-0.01866 0.0043,-0.02571 -0.0088,-0.02136 -0.03079,0.01026 -0.108875,0.163407 -0.161904,0.317522 l -0.04858,0.141181 -7.82e-4,0.1875 c -10e-4,0.246502 0.0456,0.403694 0.181307,0.611201 0.08998,0.137585 0.253276,0.308824 0.203139,0.213018 z m 2.040062,-0.229765 c 0.206981,-0.01116 0.533334,-0.09411 0.749006,-0.190377 0.0889,-0.03968 0.161642,-0.07487 0.161642,-0.07819 0,-0.0033 -0.04336,-0.06043 -0.09635,-0.126901 -0.131848,-0.165381 -0.256257,-0.360825 -0.325237,-0.510939 -0.261923,-0.570001 -0.30387,-1.226519 -0.115579,-1.80896 0.116704,-0.361001 0.318659,-0.683256 0.615292,-0.981806 0.215139,-0.216529 0.394033,-0.347422 0.655314,-0.479478 0.232254,-0.117385 0.427396,-0.181298 0.680624,-0.222915 0.215482,-0.03541 0.578671,-0.04157 0.736511,-0.01249 l 0.09949,0.01833 0.05856,-0.04967 c 0.09379,-0.07955 0.453934,-0.34834 0.586426,-0.437676 0.169617,-0.114369 0.578194,-0.346705 0.897917,-0.510598 0.148242,-0.07599 0.269531,-0.143965 0.269531,-0.151053 0,-0.0227 -0.470227,-0.242134 -0.65625,-0.306248 -0.336066,-0.115828 -0.651322,-0.1865 -0.994069,-0.222845 -0.229068,-0.02429 -0.88353,-0.0113 -1.084334,0.02152 -0.720213,0.117715 -1.433575,0.436078 -2.007534,0.895933 -0.152181,0.121927 -0.455583,0.410559 -0.547857,0.521186 -0.02524,0.03026 -0.07804,0.09354 -0.117332,0.140625 -0.408811,0.489867 -0.700774,1.110645 -0.841271,1.788728 -0.08294,0.400273 -0.08028,1.017812 0.0063,1.451235 0.0706,0.353647 0.236497,0.798193 0.403791,1.082029 l 0.08123,0.137822 0.07009,0.01255 c 0.08291,0.01485 0.459283,0.03891 0.515404,0.03295 0.02148,-0.0023 0.110912,-0.008 0.198727,-0.01276 z m 7.695257,-0.02023 c 0.02759,-0.03166 0.137266,-0.354949 0.137266,-0.404607 0,-0.04032 -0.04503,-0.06147 -0.07123,-0.03347 -0.02161,0.0231 -0.147517,0.382868 -0.147517,0.421515 0,0.02249 0.01836,0.03869 0.04836,0.04267 0.0051,6.79e-4 0.02002,-0.01107 0.03312,-0.02611 z m 0.237815,-0.737161 c 0.05482,-0.06058 -0.02501,-0.150923 -0.09857,-0.111553 -0.02358,0.01262 -0.03323,0.03275 -0.03323,0.06932 0,0.02834 0.0047,0.05622 0.01042,0.06195 0.02136,0.02136 0.09505,0.0094 0.121382,-0.01971 z m 0.05885,-0.415845 0.0181,-0.03973 -0.03222,-0.03222 c -0.04043,-0.04043 -0.09438,-0.02694 -0.107917,0.02698 -0.02045,0.08148 0.08731,0.121191 0.122041,0.04497 z m -10.519442,-0.23547 c 0.02565,-0.06188 0.05389,-0.09979 0.09603,-0.128906 0.03283,-0.02269 0.05997,-0.04533 0.06029,-0.05033 3.26e-4,-0.005 -0.01643,-0.01819 -0.03725,-0.02933 -0.04189,-0.02242 -0.123727,-0.129508 -0.1408,-0.184248 -0.01626,-0.05213 -0.03513,-0.0431 -0.06876,0.03292 -0.01656,0.03744 -0.05946,0.09166 -0.09532,0.120478 l -0.06521,0.0524 0.0685,0.06312 c 0.04077,0.03757 0.07992,0.09316 0.09671,0.137335 0.01552,0.04082 0.033,0.07422 0.03884,0.07422 0.0058,0 0.02698,-0.03945 0.04696,-0.08766 z m 0.663836,-0.136101 c 0.04973,-0.07329 0.04929,-0.08416 -0.006,-0.148825 l -0.04472,-0.05227 -0.01056,0.03327 c -0.0058,0.0183 -0.02527,0.04697 -0.04325,0.06372 l -0.03269,0.03046 0.02501,0.02764 c 0.01376,0.0152 0.03273,0.04794 0.04216,0.07274 0.0094,0.02481 0.02007,0.04219 0.02363,0.03863 0.0036,-0.0036 0.02446,-0.03298 0.04644,-0.06536 z m 9.880208,-0.178586 0.0043,-0.238281 0.08944,-2.39e-4 c 0.106952,-2.87e-4 0.135804,-0.01463 0.121306,-0.06031 l -0.01054,-0.0332 h -0.100509 -0.10051 v -0.154578 -0.154579 l -0.02542,-0.0098 c -0.05257,-0.02017 -0.06833,0.01942 -0.06833,0.171673 v 0.14581 l -0.105469,0.0046 -0.105468,0.0046 v 0.03906 0.03906 l 0.105468,0.0046 0.105469,0.0046 v 0.231057 c 0,0.127081 0.005,0.236041 0.01108,0.242132 0.0061,0.0061 0.02543,0.009 0.04297,0.0065 l 0.03189,-0.0046 z m -1.32576,-0.02299 c 0.0097,-0.02769 0.03555,-0.06913 0.05755,-0.09209 l 0.04,-0.04176 -0.03649,-0.04139 c -0.02007,-0.02276 -0.04795,-0.06224 -0.06195,-0.08773 l -0.02545,-0.04634 -0.02735,0.04311 c -0.01504,0.02371 -0.04478,0.06187 -0.06608,0.0848 l -0.03873,0.04169 0.05638,0.07384 c 0.03101,0.04061 0.05638,0.08338 0.05638,0.09503 0,0.03941 0.02808,0.02151 0.04574,-0.02915 z m -0.998109,-0.01399 c 0.01109,-0.02679 0.038,-0.06523 0.05978,-0.08543 l 0.03961,-0.03673 -0.03262,-0.03566 c -0.01794,-0.01961 -0.04417,-0.05851 -0.05829,-0.08644 -0.03204,-0.06339 -0.04692,-0.06382 -0.0725,-0.0021 -0.0111,0.02679 -0.03819,0.06541 -0.06021,0.08583 l -0.04004,0.03713 0.03555,0.0249 c 0.01955,0.01369 0.04656,0.05241 0.06001,0.08604 0.01346,0.03363 0.02988,0.06115 0.0365,0.06115 0.0066,0 0.02111,-0.02192 0.03221,-0.0487 z m -7.787946,-0.312183 c 0.02475,-0.02231 0.06157,-0.05163 0.08183,-0.06514 l 0.03683,-0.02457 -0.04774,-0.02469 c -0.05895,-0.03048 -0.120552,-0.109365 -0.148538,-0.190199 -0.01163,-0.0336 -0.02704,-0.05985 -0.03425,-0.05833 -0.0072,0.0015 -0.02408,0.03075 -0.03749,0.06497 -0.02958,0.07547 -0.09294,0.149051 -0.156761,0.182053 -0.02602,0.01346 -0.04731,0.02762 -0.04731,0.03148 0,0.0039 0.02087,0.0178 0.04637,0.03099 0.06484,0.03353 0.121315,0.09752 0.158827,0.179946 l 0.032,0.07031 0.03562,-0.07813 c 0.01959,-0.04297 0.05587,-0.09638 0.08062,-0.118697 z m 8.618495,-0.508785 c 0.04986,-0.06858 0.162917,-0.141686 0.248089,-0.160415 0.172927,-0.03803 0.340685,0.04126 0.44703,0.211267 l 0.01861,0.02976 9.19e-4,-0.05586 c 0.0026,-0.158942 -0.09848,-0.562234 -0.21512,-0.858201 -0.06051,-0.153548 -0.232531,-0.484758 -0.273448,-0.526514 -0.01421,-0.0145 -0.04988,-0.01201 -0.15895,0.01114 -0.07734,0.01641 -0.288282,0.05869 -0.46875,0.09396 -0.440147,0.08601 -0.860519,0.196123 -1.048311,0.274587 l -0.05428,0.02268 0.125638,0.142196 c 0.0691,0.07821 0.1572,0.189671 0.195775,0.247696 0.08545,0.128533 0.198275,0.365104 0.234682,0.492073 0.01478,0.05156 0.03023,0.09948 0.03432,0.106477 0.0041,0.007 0.03215,-0.01613 0.06234,-0.05141 0.03019,-0.03527 0.09065,-0.08225 0.134357,-0.104399 l 0.07946,-0.04027 0.118004,0.0071 c 0.131347,0.0079 0.176093,0.02884 0.290004,0.135606 0.03865,0.03622 0.07684,0.0618 0.08488,0.05683 0.008,-0.005 0.02736,0.0083 0.04293,0.02955 l 0.02832,0.03858 0.01881,-0.02654 c 0.01034,-0.0146 0.03495,-0.04875 0.05469,-0.0759 z m 1.473131,-0.493611 c 0.0045,-0.01934 0.01894,-0.08789 0.03211,-0.152344 0.03757,-0.183782 0.120962,-0.279791 0.285967,-0.329228 0.08308,-0.02489 0.08258,-0.05125 -0.0014,-0.07606 -0.170948,-0.05047 -0.244744,-0.151952 -0.287297,-0.39508 -0.01636,-0.09345 -0.03401,-0.152761 -0.04547,-0.152761 -0.01131,0 -0.02921,0.05731 -0.04516,0.144531 -0.0449,0.24553 -0.100088,0.326846 -0.265231,0.390813 -0.04965,0.01923 -0.09028,0.042 -0.09028,0.05059 0,0.0086 0.04062,0.03136 0.09028,0.05059 0.160406,0.06213 0.215591,0.140087 0.265596,0.375188 0.02767,0.130094 0.04595,0.158225 0.06091,0.09375 z m -9.883264,-0.09375 c 0.0078,-0.01934 0.03944,-0.116016 0.07023,-0.214844 0.03079,-0.09883 0.07434,-0.223259 0.09678,-0.276513 0.04371,-0.103724 0.04104,-0.145362 -0.0093,-0.145362 -0.04229,0 -0.09118,0.09918 -0.180109,0.365349 -0.0681,0.203843 -0.08237,0.27397 -0.06023,0.296109 0.02254,0.02254 0.06912,0.0086 0.08263,-0.02474 z m 0.327053,-0.85452 c 0.01508,-0.0081 0.04013,-0.04285 0.05566,-0.07728 0.05454,-0.120941 -0.01754,-0.155073 -0.08904,-0.04216 -0.04673,0.07381 -0.05387,0.111493 -0.02344,0.123773 0.02847,0.01149 0.02707,0.0116 0.05682,-0.0043 z m 7.862323,-0.0323 c 0.399819,-0.07022 0.602888,-0.125353 0.804913,-0.21852 0.405153,-0.186842 0.67787,-0.502087 0.758138,-0.876364 0.02082,-0.09706 0.01137,-0.369261 -0.01435,-0.4136 l -0.01768,-0.03048 -4.75e-4,0.04122 c -7.63e-4,0.06623 -0.07439,0.302365 -0.132387,0.424576 -0.102579,0.216164 -0.286833,0.419488 -0.517183,0.570711 -0.126655,0.08315 -0.305452,0.174735 -0.655592,0.335823 -0.362766,0.166895 -0.422272,0.195235 -0.412889,0.196638 0.0049,7.39e-4 0.08932,-0.01277 0.1875,-0.03001 z M 22.611146,15.59642 c 0.03829,-0.245293 0.10319,-0.342116 0.269723,-0.402419 0.05371,-0.01945 0.09766,-0.04051 0.09766,-0.0468 0,-0.0063 -0.04313,-0.02716 -0.09584,-0.04638 -0.158434,-0.05777 -0.224496,-0.150996 -0.264123,-0.372737 -0.03055,-0.170966 -0.03953,-0.167124 -0.08479,0.03631 -0.04562,0.205037 -0.113137,0.288695 -0.27847,0.345029 -0.04051,0.0138 -0.07365,0.03097 -0.07365,0.03814 0,0.0072 0.03896,0.02437 0.08658,0.03822 0.11506,0.03345 0.199773,0.111184 0.240873,0.221035 0.01756,0.04692 0.03196,0.09735 0.032,0.112067 1.47e-4,0.04513 0.03183,0.143945 0.04615,0.143945 0.0074,0 0.01818,-0.02988 0.02388,-0.06641 z m 7.987715,-0.921982 c 0.04806,-0.07081 0.0863,-0.167418 0.07644,-0.193124 -0.01991,-0.05188 -0.05312,-0.01666 -0.08646,0.09167 -0.01918,0.06231 -0.03836,0.12207 -0.04264,0.132813 -0.01541,0.03872 0.01901,0.01822 0.05267,-0.03136 z m -7.113639,-0.0049 c 0.0529,-0.0529 0.01435,-0.122466 -0.06277,-0.113294 -0.05763,0.0069 -0.08027,0.04583 -0.0567,0.09757 0.02126,0.04667 0.0807,0.05449 0.119468,0.01572 z m 8.166469,-0.118484 c 0.02528,-0.04723 0.02501,-0.327714 -4.44e-4,-0.458525 -0.03084,-0.158492 -0.157097,-0.450701 -0.157097,-0.36358 0,0.01159 0.01061,0.06183 0.02359,0.11164 0.04044,0.155242 0.07003,0.3713 0.0701,0.511706 9.8e-5,0.21021 0.02172,0.277497 0.06385,0.198759 z M 24.009775,14.2869 c 0.06445,-0.04344 0.164964,-0.103438 0.223358,-0.133323 0.115329,-0.05902 0.13845,-0.08875 0.0994,-0.1278 l -0.02527,-0.02527 -0.0589,0.0278 c -0.100825,0.04759 -0.355086,0.2094 -0.393794,0.250603 l -0.03688,0.03926 0.01983,0.02389 c 0.02961,0.03568 0.04457,0.0309 0.172255,-0.05517 z m 4.552816,-0.335752 c 0.01959,-0.05105 -0.122792,-0.1261 -0.432181,-0.227804 -0.202623,-0.06661 -0.237949,-0.07182 -0.251285,-0.03707 -0.01795,0.04678 0.0098,0.06638 0.154929,0.109219 0.08126,0.024 0.222839,0.07708 0.314615,0.117955 0.165733,0.07382 0.197886,0.07948 0.213922,0.0377 z m -2.109658,-0.03467 0.01394,-0.0486 -0.04444,-0.03823 c -0.06295,-0.05414 -0.08924,-0.03979 -0.06193,0.03381 0.01167,0.03145 0.02543,0.07008 0.03057,0.08583 0.01339,0.04104 0.04558,0.02397 0.06187,-0.03281 z m -1.787514,0.01312 c 0.03125,-0.05839 -0.02026,-0.109899 -0.07865,-0.07865 -0.03107,0.01663 -0.03709,0.04116 -0.02063,0.08405 0.01326,0.03456 0.07984,0.03094 0.09928,-0.0054 z m 0.347032,-0.120741 c 0.05456,-0.04938 0.0255,-0.114766 -0.051,-0.114766 -0.08673,0 -0.07886,0.137281 0.008,0.14015 0.0079,2.61e-4 0.02725,-0.01116 0.04297,-0.02538 z m 1.309824,-0.05916 c 0,-0.0038 -0.007,-0.01124 -0.01563,-0.01655 -0.0086,-0.0053 -0.01563,-0.0022 -0.01563,0.0069 0,0.0091 0.007,0.01655 0.01563,0.01655 0.0086,0 0.01563,-0.0031 0.01563,-0.0069 z m 4.492898,-0.109587 c 0.05059,-0.05059 0.0498,-0.117518 -0.0021,-0.179199 -0.0499,-0.05931 -0.112009,-0.06327 -0.17274,-0.01104 -0.03217,0.02767 -0.04306,0.05127 -0.04306,0.09332 0,0.120413 0.134553,0.180257 0.217898,0.09691 z m -4.544687,-0.103676 c 0.0371,-0.01796 0.08887,-0.05839 0.11505,-0.08984 l 0.0476,-0.05719 0.01768,0.03125 c 0.02554,0.04514 0.106832,0.11834 0.1494,0.134524 0.02013,0.0077 0.133713,0.01391 0.252414,0.01391 h 0.21582 l 0.01945,-0.02344 c 0.01552,-0.0187 0.01552,-0.02818 0,-0.04687 -0.0155,-0.01867 -0.06148,-0.02344 -0.226131,-0.02344 h -0.20668 l -0.06523,-0.04725 c -0.06016,-0.04358 -0.08718,-0.08634 -0.141239,-0.223506 -0.02378,-0.06034 -0.04578,-0.04751 -0.07707,0.04493 -0.03561,0.105202 -0.09005,0.178002 -0.152655,0.204161 -0.03347,0.01398 -0.112331,0.02167 -0.222327,0.02167 -0.177279,0 -0.22099,0.01533 -0.199966,0.07011 l 0.0091,0.02364 h 0.198683 0.198682 z m 3.998919,-0.758087 c 0.01511,-0.0602 -0.04763,-0.09354 -0.08693,-0.0462 -0.01382,0.01666 -0.01417,0.03075 -0.0014,0.05469 0.02481,0.04636 0.07575,0.04146 0.08829,-0.0085 z"
         id="path287" />
      <path
         style="fill:#ff8100;fill-opacity:1;stroke-width:1.02675"
         d="m 25.744209,24.715311 c -0.438217,-0.04106 -0.95787,-0.17815 -1.371316,-0.361768 -0.169558,-0.07531 -0.508534,-0.255044 -0.508228,-0.269483 1.29e-4,-0.0062 0.08265,-0.04298 0.183365,-0.08182 0.497515,-0.191932 0.962948,-0.486097 1.378715,-0.871385 0.07539,-0.06986 0.15973,-0.147708 0.18742,-0.172988 l 0.05035,-0.04597 0.128445,0.03271 c 0.466197,0.118761 1.054067,0.05025 1.528009,-0.178091 0.276009,-0.132976 0.541945,-0.331279 0.757166,-0.564602 0.312126,-0.338379 0.563283,-0.826137 0.623533,-1.21093 0.0094,-0.05972 0.0206,-0.126162 0.02499,-0.147655 l 0.008,-0.03907 0.05412,0.07684 c 0.110317,0.156629 0.307523,0.20593 0.478502,0.119623 0.06111,-0.03084 0.09478,-0.0638 0.146377,-0.143262 l 0.06702,-0.103192 0.01541,0.05854 c 0.01725,0.06552 -0.0154,-0.02806 -0.0154,-0.06777 0,-0.05629 0.100651,0.08143 0.170753,0.156347 0.03916,0.04186 0.09996,0.09026 0.135121,0.107559 0.0854,0.04204 0.242425,0.04218 0.327459,3.32e-4 0.061,-0.03003 0.161729,-0.132819 0.203456,-0.207611 l 0.02017,-0.03614 -0.0078,0.109924 c -0.02328,0.328819 -0.17623,0.865167 -0.361639,1.268155 -0.307277,0.667869 -0.764863,1.261396 -1.311811,1.701522 -0.534801,0.430351 -1.28501,0.749657 -1.987686,0.846003 -0.236004,0.03236 -0.706154,0.04468 -0.924482,0.02421 z m -3.69793,-0.526398 c -0.155046,-0.03607 -0.315414,-0.132165 -0.433843,-0.259982 -0.102329,-0.110441 -0.197468,-0.264203 -0.197742,-0.319587 -1.99e-4,-0.04031 0.0225,-0.03659 0.05075,0.0083 0.02728,0.04341 0.120481,0.148517 0.196823,0.221954 0.129805,0.124865 0.317067,0.237797 0.512847,0.309283 0.174478,0.0637 0.08824,0.09048 -0.128829,0.03999 z m 0.616322,-0.184628 c -0.172319,-0.02493 -0.305042,-0.06307 -0.495501,-0.142411 -0.157635,-0.06566 -0.176436,-0.09133 -0.06178,-0.08434 0.04803,0.0029 0.103458,-0.0012 0.123158,-0.0092 l 0.03582,-0.01451 -0.135972,-0.05536 c -0.498739,-0.203051 -0.932013,-0.660071 -1.075289,-1.134222 -0.03297,-0.10911 -0.02342,-0.125967 0.02355,-0.04155 0.20373,0.36617 0.565951,0.626294 0.899651,0.646076 0.134257,0.0079 0.134429,0.0013 0.0021,-0.07932 -0.143484,-0.0874 -0.346039,-0.275142 -0.450956,-0.417993 -0.115156,-0.156788 -0.234927,-0.411521 -0.283551,-0.603061 -0.0254,-0.100079 -0.03394,-0.17977 -0.03398,-0.317376 l -5.7e-5,-0.183744 0.04213,-0.150336 c 0.04926,-0.175788 0.147286,-0.385825 0.165535,-0.354679 0.0066,0.01133 0.01218,0.04418 0.01231,0.07301 3.48e-4,0.07728 0.07051,0.326404 0.125396,0.445302 0.163478,0.354102 0.426088,0.635048 0.7421,0.793913 0.128727,0.06471 0.244074,0.09018 0.447507,0.0988 0.59695,0.0253 1.275336,-0.185502 1.666689,-0.517913 0.219781,-0.186682 0.45905,-0.482183 0.5602,-0.691861 0.02439,-0.05054 0.0245,-0.05036 -0.04018,-0.07321 -0.131438,-0.04644 -0.246288,-0.169058 -0.281854,-0.30092 -0.03713,-0.137644 0.06227,-0.324951 0.193258,-0.364182 0.0339,-0.01012 0.124567,-0.0185 0.201488,-0.01855 l 0.139856,-9.4e-5 0.03367,-0.169623 c 0.01852,-0.0933 0.03008,-0.173523 0.02568,-0.178288 -0.0044,-0.0048 -0.07533,-0.0115 -0.157637,-0.01496 -0.173173,-0.0073 -0.245291,-0.03547 -0.330628,-0.129311 -0.0853,-0.09379 -0.110378,-0.163167 -0.100717,-0.278665 0.0096,-0.114592 0.0681,-0.208499 0.161174,-0.258646 l 0.05793,-0.03122 0.26176,-0.0083 0.261762,-0.0083 0.0046,-0.03341 c 0.01122,-0.0804 0.07135,-0.307309 0.120909,-0.456254 0.144,-0.432768 0.374046,-0.818164 0.713047,-1.194565 0.531007,-0.589592 1.149862,-1.000764 2.01867,-1.341222 0.337188,-0.132134 0.479343,-0.247587 0.573393,-0.465688 0.142091,-0.329511 0.110303,-0.826729 -0.08049,-1.258954 -0.03394,-0.07689 -0.05809,-0.1437 -0.05368,-0.148483 0.008,-0.0087 0.113711,0.112656 0.199107,0.228287 0.128117,0.173475 0.269067,0.473405 0.320713,0.682449 0.07428,0.300664 0.04929,0.701063 -0.05777,0.925506 -0.04798,0.100596 -0.0087,0.06166 0.07411,-0.07339 0.176014,-0.28718 0.242175,-0.51254 0.253911,-0.864889 0.0095,-0.282755 -0.01314,-0.44783 -0.09434,-0.690407 -0.139085,-0.41548 -0.382941,-0.710403 -0.782762,-0.946683 l -0.112101,-0.06625 0.08475,3.53e-4 c 0.276078,0.0012 0.615196,0.178823 0.869635,0.455634 0.267086,0.29057 0.423301,0.612087 0.496484,1.021847 0.0318,0.178046 0.0312,0.561068 -0.0012,0.723041 -0.03198,0.160198 -0.114213,0.395217 -0.179847,0.513974 -0.06765,0.122395 -0.244785,0.329039 -0.344413,0.401777 -0.102438,0.07479 -0.07017,0.07154 0.108558,-0.01089 0.55056,-0.254039 0.908836,-0.710831 0.993664,-1.266894 0.02453,-0.160735 0.01962,-0.474116 -0.0099,-0.628974 -0.0139,-0.0731 -0.04898,-0.188576 -0.07795,-0.256639 -0.02897,-0.06807 -0.04987,-0.126809 -0.04642,-0.130544 0.01252,-0.01358 0.136591,0.190821 0.195133,0.321487 0.0745,0.166277 0.149508,0.470666 0.16242,0.659085 0.03872,0.56495 -0.226097,1.22716 -0.636916,1.592699 -0.165469,0.147232 -0.233507,0.190654 -0.635724,0.405727 -0.406732,0.217487 -0.583234,0.297749 -0.817406,0.371702 -0.474867,0.149968 -0.76129,0.283428 -1.038894,0.484077 -0.279952,0.202346 -0.569764,0.559076 -0.716572,0.88203 -0.03405,0.0749 -0.0619,0.144428 -0.0619,0.154512 0,0.01257 0.08108,0.01839 0.258085,0.01849 l 0.258086,1.57e-4 0.07704,0.04791 c 0.107106,0.06662 0.217139,0.198538 0.238996,0.286536 0.03461,0.139362 -0.01904,0.261475 -0.146069,0.332401 l -0.07656,0.04275 -0.37946,0.0052 -0.37946,0.0052 -0.03318,0.156613 c -0.01825,0.08613 -0.03318,0.164595 -0.03318,0.174354 0,0.01203 0.120302,0.01777 0.373644,0.0178 l 0.373646,6.2e-5 0.05393,0.03526 c 0.104451,0.06827 0.189041,0.154753 0.217293,0.222192 0.06609,0.157752 0.01322,0.320429 -0.132548,0.407916 l -0.04622,0.02774 -0.506421,0.0083 -0.506421,0.0083 -0.04493,0.150336 c -0.0999,0.334278 -0.369306,0.838479 -0.617181,1.155092 -0.375743,0.47994 -0.936287,0.931792 -1.468287,1.183579 -0.578057,0.273585 -1.13544,0.374128 -1.656365,0.298782 z m 7.028392,-0.07871 c -0.02122,-0.02772 0.0015,-0.06541 0.127568,-0.211922 0.07874,-0.09149 0.15601,-0.193153 0.334435,-0.440031 l 0.0252,-0.03486 0.02488,0.02238 c 0.01369,0.01231 0.02488,0.03226 0.02488,0.04433 0,0.0814 -0.441064,0.642115 -0.505091,0.642115 -0.0083,0 -0.02259,-0.0099 -0.03186,-0.02202 z m -8.845941,-0.699402 c -0.08099,-0.09425 0.01562,-0.245366 0.125358,-0.196089 0.05769,0.02591 0.0786,0.08079 0.05672,0.148854 -0.0284,0.08831 -0.125193,0.113426 -0.182075,0.04723 z m 9.676275,-0.605731 -0.01856,-0.02424 0.05134,-0.113567 0.05134,-0.113569 h 0.03831 c 0.05229,0 0.05632,0.04101 0.01353,0.137731 -0.05966,0.134851 -0.09628,0.165465 -0.135957,0.113645 z M 20.7121,22.537522 c -0.04681,-0.11084 -0.08273,-0.28804 -0.08309,-0.409829 -3.15e-4,-0.107558 0.01702,-0.09507 0.04521,0.03257 0.01116,0.05052 0.04362,0.16799 0.07214,0.261026 0.05902,0.192532 0.06093,0.206686 0.0279,0.206686 -0.01402,0 -0.0398,-0.0375 -0.06217,-0.09045 z m 0.394289,-0.21263 c -0.08901,-0.109825 -0.161591,-0.230571 -0.21445,-0.356724 -0.07087,-0.169145 -0.08606,-0.2525 -0.08524,-0.467712 l 7.71e-4,-0.200448 0.04791,-0.15093 c 0.05229,-0.164758 0.129297,-0.328479 0.159656,-0.339448 0.01288,-0.0047 0.01575,0.0029 0.0087,0.02283 -0.01835,0.05183 -0.03959,0.243424 -0.05021,0.452886 -0.01975,0.389422 0.05337,0.766975 0.212308,1.096244 0.02657,0.05502 -0.01007,0.02887 -0.07942,-0.05671 z m 1.656365,-0.183972 c -0.110167,-0.0072 -0.231408,-0.01916 -0.269423,-0.02654 l -0.06912,-0.01342 -0.0801,-0.14734 c -0.164972,-0.303437 -0.328563,-0.778682 -0.398184,-1.15675 -0.08533,-0.463353 -0.08795,-1.123537 -0.0062,-1.551452 0.138546,-0.724908 0.426456,-1.388554 0.829589,-1.912249 0.03875,-0.05033 0.09081,-0.117983 0.115703,-0.150336 0.09099,-0.118267 0.390182,-0.42683 0.540251,-0.557177 0.565988,-0.491611 1.269445,-0.83196 1.979659,-0.957803 0.198015,-0.03509 0.84339,-0.04897 1.069277,-0.02301 0.337988,0.03886 0.648867,0.114407 0.980266,0.238233 0.18344,0.06854 0.647138,0.303133 0.647138,0.327397 0,0.0076 -0.119605,0.08025 -0.265788,0.161484 -0.315284,0.175211 -0.718188,0.423591 -0.88545,0.545858 -0.130652,0.09551 -0.485797,0.38286 -0.578283,0.4679 l -0.05775,0.0531 -0.09811,-0.0196 c -0.263701,-0.05267 -0.750989,-0.0083 -1.058481,0.09646 -0.189591,0.06457 -0.492788,0.230971 -0.669326,0.367332 -0.179355,0.138537 -0.465001,0.450852 -0.596757,0.652476 -0.449372,0.687658 -0.560785,1.538575 -0.309475,2.363616 0.08681,0.284972 0.220361,0.544885 0.418313,0.814067 0.05225,0.07106 0.09501,0.132109 0.09501,0.135664 0,0.0035 -0.07173,0.04117 -0.159397,0.08359 -0.212678,0.102917 -0.534499,0.191594 -0.738606,0.203523 -0.08659,0.005 -0.174781,0.0112 -0.195968,0.01364 -0.02118,0.0025 -0.128657,-0.0015 -0.238824,-0.0087 z m 7.962105,-0.0084 c -0.01059,-0.0046 -0.01926,-0.02077 -0.01926,-0.03587 0,-0.04132 0.124161,-0.425933 0.145469,-0.450624 0.02584,-0.02994 0.07024,-0.0073 0.07024,0.03578 0,0.05309 -0.108156,0.398702 -0.13536,0.432547 -0.02453,0.03053 -0.02948,0.032 -0.06109,0.01817 z m 0.175909,-0.785162 c -0.0056,-0.0061 -0.01028,-0.03593 -0.01028,-0.06623 0,-0.03909 0.0096,-0.06061 0.03277,-0.07411 0.07254,-0.04209 0.151265,0.05449 0.0972,0.119257 -0.02597,0.03111 -0.09864,0.0439 -0.119697,0.02108 z m 0.06694,-0.448053 c -0.02632,-0.03438 -0.0071,-0.104171 0.03249,-0.11778 0.0224,-0.0077 0.04252,-4.43e-4 0.06436,0.02323 l 0.03177,0.03444 -0.01785,0.04247 c -0.02032,0.04836 -0.07999,0.05786 -0.110791,0.01763 z M 20.62051,20.644385 c -0.01656,-0.04722 -0.05516,-0.106657 -0.09537,-0.146819 l -0.06755,-0.06749 0.06431,-0.05602 c 0.03537,-0.03081 0.07767,-0.08877 0.094,-0.128799 0.03316,-0.08127 0.05177,-0.09091 0.0678,-0.03519 0.01683,0.05852 0.09754,0.173005 0.138845,0.196973 0.02052,0.01191 0.03705,0.02601 0.03673,0.03136 -3.22e-4,0.0053 -0.02708,0.02955 -0.05945,0.0538 -0.04155,0.03113 -0.06941,0.07167 -0.0947,0.137808 -0.0197,0.05155 -0.04054,0.09371 -0.04631,0.09371 -0.0057,0 -0.023,-0.03571 -0.0383,-0.07934 z M 21.290645,20.5131 c -0.0093,-0.02652 -0.02801,-0.06151 -0.04158,-0.07776 l -0.02466,-0.02955 0.03224,-0.03256 c 0.01773,-0.01791 0.03692,-0.04856 0.04265,-0.06812 l 0.01041,-0.03557 0.0441,0.05588 c 0.02425,0.03073 0.04437,0.06494 0.04472,0.07602 5.13e-4,0.01647 -0.06056,0.126928 -0.08457,0.152959 -0.0036,0.0038 -0.014,-0.01477 -0.0233,-0.04131 z m 9.734037,0.03317 c -0.006,-0.0065 -0.01093,-0.122996 -0.01093,-0.258852 v -0.247015 l -0.104004,-0.005 -0.104004,-0.005 v -0.04176 -0.04176 l 0.104004,-0.005 0.104004,-0.0049 v -0.155879 c 0,-0.162769 0.01554,-0.205094 0.06738,-0.183527 l 0.02507,0.01045 v 0.165254 0.165253 h 0.09911 0.09911 l 0.01039,0.03549 c 0.0143,0.04883 -0.01415,0.06416 -0.119621,0.06447 l -0.0882,2.57e-4 -0.0042,0.254735 -0.0042,0.254735 -0.03145,0.005 c -0.0173,0.0027 -0.03637,-4.47e-4 -0.04237,-0.0069 z M 29.7503,20.300186 c 0,-0.01245 -0.02502,-0.05818 -0.0556,-0.101597 l -0.0556,-0.07894 0.03819,-0.04457 c 0.021,-0.02451 0.05033,-0.06531 0.06516,-0.09065 l 0.02697,-0.04609 0.0251,0.04954 c 0.01381,0.02725 0.0413,0.06946 0.06109,0.09379 l 0.03598,0.04425 -0.03944,0.04464 c -0.0217,0.02456 -0.04724,0.06886 -0.05675,0.09845 -0.01741,0.05416 -0.0451,0.07328 -0.0451,0.03116 z m -1.006893,-0.05942 c -0.01327,-0.03595 -0.0399,-0.07735 -0.05918,-0.09198 l -0.03506,-0.02662 0.03948,-0.03969 c 0.02171,-0.02184 0.04844,-0.06312 0.05937,-0.09176 0.02521,-0.066 0.03989,-0.06554 0.07149,0.0022 0.01392,0.02987 0.03979,0.07145 0.05748,0.09241 l 0.03217,0.03813 -0.03906,0.03927 c -0.02149,0.02159 -0.04801,0.06269 -0.05895,0.09133 -0.01095,0.02864 -0.02523,0.05206 -0.03176,0.05206 -0.0065,0 -0.02272,-0.02941 -0.03599,-0.06537 z m -7.758235,-0.185191 c -0.03699,-0.08812 -0.09268,-0.156529 -0.156621,-0.192374 -0.02516,-0.0141 -0.04573,-0.02901 -0.04573,-0.03313 0,-0.0042 0.02099,-0.01927 0.04665,-0.03365 0.06293,-0.03528 0.125412,-0.113943 0.154584,-0.194625 0.01322,-0.03659 0.02987,-0.06784 0.03697,-0.06947 0.0071,-0.0016 0.02231,0.02646 0.03377,0.06236 0.0276,0.0864 0.08835,0.170743 0.146475,0.203333 l 0.04708,0.0264 -0.03632,0.02627 c -0.07719,0.05583 -0.126418,0.116222 -0.160191,0.196533 l -0.03513,0.08352 z m 8.544605,-0.610897 c -0.01535,-0.02268 -0.03441,-0.0369 -0.04233,-0.03159 -0.0079,0.0053 -0.04559,-0.02202 -0.0837,-0.06075 -0.11233,-0.114139 -0.156454,-0.136508 -0.285976,-0.14497 l -0.116366,-0.0076 -0.07836,0.04305 c -0.04309,0.02368 -0.102718,0.0739 -0.132492,0.111608 -0.02977,0.03771 -0.05743,0.06244 -0.06147,0.05496 -0.004,-0.0075 -0.01927,-0.0587 -0.03384,-0.11383 -0.0359,-0.135736 -0.147162,-0.388644 -0.231423,-0.526054 -0.03805,-0.06204 -0.124915,-0.181191 -0.193057,-0.2648 l -0.123893,-0.152016 0.05353,-0.02426 c 0.185184,-0.08388 0.599719,-0.201596 1.033755,-0.293549 0.177962,-0.0377 0.385971,-0.0829 0.462241,-0.100452 0.107552,-0.02474 0.142727,-0.02741 0.156743,-0.01191 0.04035,0.04464 0.209976,0.398721 0.269651,0.562872 0.115024,0.316406 0.214712,0.747547 0.212133,0.917465 l -9.06e-4,0.05972 -0.01835,-0.03181 c -0.137948,-0.239083 -0.380617,-0.305136 -0.580747,-0.158076 -0.0615,0.0452 -0.08612,0.07388 -0.158648,0.184857 l -0.01855,0.02837 z m 1.493009,-0.696191 c -0.04931,-0.251337 -0.103729,-0.334675 -0.261907,-0.401098 -0.04896,-0.02056 -0.08903,-0.0449 -0.08903,-0.05408 0,-0.0092 0.04006,-0.03352 0.08903,-0.05408 0.16285,-0.06839 0.21727,-0.155316 0.261548,-0.417802 0.01573,-0.09324 0.03339,-0.154511 0.04453,-0.154511 0.0113,0 0.02871,0.06341 0.04484,0.163309 0.04196,0.259918 0.114733,0.368407 0.283308,0.422363 0.08284,0.02651 0.08333,0.0547 0.0014,0.08131 -0.162714,0.05284 -0.244949,0.15549 -0.281996,0.351964 -0.03549,0.188202 -0.03868,0.200447 -0.05221,0.200447 -0.0069,0 -0.02465,-0.06202 -0.03952,-0.137809 z m -9.767452,0.02644 c -0.02183,-0.02367 -0.0078,-0.09864 0.05939,-0.316556 0.0877,-0.284549 0.135905,-0.39058 0.177608,-0.39058 0.04965,0 0.05227,0.04452 0.0092,0.155401 -0.02213,0.05693 -0.06507,0.189955 -0.09544,0.295609 -0.03036,0.105655 -0.06152,0.209009 -0.06925,0.22968 -0.01332,0.03563 -0.05926,0.05053 -0.08148,0.02645 z m 0.347964,-0.93535 c -0.03001,-0.01313 -0.02298,-0.05342 0.02311,-0.132321 0.0705,-0.120709 0.14158,-0.08422 0.0878,0.04507 -0.01532,0.03682 -0.04001,0.07399 -0.05489,0.08262 -0.02934,0.01702 -0.02796,0.01691 -0.05603,0.0046 z m 7.715577,-0.05911 c 0.05508,-0.02783 0.197223,-0.09902 0.315865,-0.158186 0.345278,-0.172211 0.521593,-0.270122 0.646489,-0.359012 0.227151,-0.161667 0.408847,-0.379031 0.510002,-0.610123 0.05718,-0.13065 0.129796,-0.383091 0.130548,-0.453895 l 4.69e-4,-0.04407 0.01743,0.03258 c 0.02536,0.0474 0.03467,0.338396 0.01415,0.442162 -0.110289,0.557516 -0.554112,0.951926 -1.249752,1.110612 -0.133027,0.03035 -0.463338,0.09409 -0.476492,0.09196 -0.0048,-7.89e-4 0.03621,-0.0242 0.0913,-0.05203 z M 22.12413,17.103135 c -0.0089,-0.03445 -0.01608,-0.07553 -0.01613,-0.09125 -4.7e-5,-0.01574 -0.01425,-0.06965 -0.03156,-0.119806 -0.04053,-0.117436 -0.124066,-0.20054 -0.237528,-0.236299 -0.04696,-0.0148 -0.08538,-0.03318 -0.08538,-0.04087 0,-0.0077 0.03268,-0.02602 0.07263,-0.04077 0.163038,-0.06023 0.22962,-0.149658 0.274604,-0.368855 0.04463,-0.21748 0.05348,-0.221587 0.08361,-0.03882 0.03908,0.237054 0.104222,0.33672 0.260456,0.398477 0.05198,0.02055 0.09451,0.04286 0.09451,0.04958 0,0.0067 -0.04334,0.02924 -0.0963,0.05003 -0.16422,0.06446 -0.228215,0.167978 -0.265978,0.43021 -0.01262,0.08766 -0.03183,0.0907 -0.05292,0.0083 z m 7.877797,-0.960479 c 0.0042,-0.01148 0.02313,-0.07538 0.04205,-0.141984 0.03288,-0.11581 0.06564,-0.153456 0.08526,-0.098 0.0098,0.02749 -0.02799,0.130763 -0.07538,0.206459 -0.03319,0.053 -0.06714,0.07491 -0.05194,0.03352 z m -7.080738,-0.05558 c -0.02325,-0.05532 -9.17e-4,-0.09698 0.05591,-0.104303 0.07605,-0.0098 0.114061,0.06457 0.0619,0.121118 -0.03823,0.04145 -0.09685,0.03308 -0.11781,-0.0168 z m 8.117609,-0.12607 c -0.0053,-0.02871 -0.0097,-0.117033 -0.0097,-0.196272 -6.4e-5,-0.150101 -0.02925,-0.38108 -0.06913,-0.547043 -0.01279,-0.05325 -0.02326,-0.106954 -0.02326,-0.119349 0,-0.09314 0.124506,0.21925 0.154915,0.388687 0.0251,0.139845 0.02536,0.439692 4.38e-4,0.490189 -0.02476,0.05016 -0.042,0.04491 -0.05327,-0.01621 z m -7.652394,-0.207203 -0.01956,-0.02554 0.03637,-0.04197 c 0.03817,-0.04404 0.288901,-0.217029 0.388326,-0.267909 l 0.05808,-0.02972 0.02492,0.02702 c 0.03851,0.04174 0.01571,0.07354 -0.09802,0.136625 -0.05758,0.03194 -0.156699,0.0961 -0.220257,0.142529 -0.125916,0.09202 -0.140659,0.09712 -0.169863,0.05898 z m 4.44851,-0.458216 c -0.09051,-0.0437 -0.230113,-0.100453 -0.310246,-0.126101 -0.143068,-0.0458 -0.17048,-0.06675 -0.152778,-0.11676 0.01315,-0.03715 0.04798,-0.03158 0.247796,0.03963 0.305093,0.108725 0.445498,0.188961 0.42618,0.243535 -0.01582,0.04468 -0.04752,0.03861 -0.210952,-0.0403 z m -1.930419,0.03831 c -0.005,-0.01684 -0.01864,-0.05814 -0.03015,-0.09176 -0.02693,-0.07868 -9.87e-4,-0.09403 0.06107,-0.03613 l 0.04382,0.04086 -0.01375,0.05195 c -0.01605,0.0607 -0.0478,0.07895 -0.06101,0.03508 z m -1.799594,-0.01529 c -0.01623,-0.04585 -0.01029,-0.07208 0.02034,-0.08985 0.05758,-0.03341 0.108373,0.02167 0.07756,0.08408 -0.01918,0.03885 -0.08482,0.04272 -0.0979,0.0058 z m 0.356589,-0.125251 c -0.05306,-0.0335 -0.02824,-0.132294 0.03323,-0.132294 0.07545,0 0.104101,0.06991 0.05029,0.122691 -0.03235,0.03175 -0.04599,0.03331 -0.08353,0.0096 z m 1.344351,-0.08317 c 0,-0.0097 0.0069,-0.01304 0.01541,-0.0074 0.0085,0.0057 0.01541,0.01364 0.01541,0.01769 0,0.0041 -0.0069,0.0074 -0.01541,0.0074 -0.0085,0 -0.01541,-0.0079 -0.01541,-0.01769 z m 4.28304,-0.108043 c -0.07801,-0.09002 -0.02007,-0.24175 0.09233,-0.24175 0.05647,0 0.123774,0.08285 0.123774,0.152377 0,0.116891 -0.141538,0.175427 -0.216107,0.08936 z m -4.770601,-0.09998 c -0.02073,-0.05858 0.02237,-0.07495 0.19719,-0.07495 0.108469,0 0.186238,-0.0083 0.21924,-0.02317 0.06174,-0.02797 0.115416,-0.105799 0.150535,-0.21826 0.03086,-0.09882 0.05255,-0.112533 0.076,-0.04803 0.05331,0.146637 0.07995,0.192348 0.139278,0.238941 l 0.06432,0.05051 h 0.20381 c 0.162368,0 0.207711,0.0051 0.222991,0.02506 0.01531,0.01999 0.01531,0.03013 0,0.05012 l -0.01918,0.02506 H 26.35964 c -0.117052,0 -0.229061,-0.0067 -0.248909,-0.01487 -0.04198,-0.0173 -0.122138,-0.09555 -0.147326,-0.143813 l -0.01743,-0.03341 -0.04694,0.06114 c -0.02582,0.03362 -0.07687,0.07685 -0.113453,0.09604 l -0.06651,0.03491 h -0.195923 -0.195924 z m 4.323637,-0.810999 c -0.01263,-0.02559 -0.01229,-0.04066 0.0014,-0.05847 0.03874,-0.05062 0.100619,-0.01497 0.08572,0.04939 -0.01237,0.05341 -0.0626,0.05864 -0.08706,0.0091 z"
         id="path286" />
    </g>
    <ellipse
       style="opacity:0;fill:#ff8100;fill-opacity:1"
       id="path795"
       cx="44.359901"
       cy="19.301805"
       rx="7.0600195"
       ry="5.9330678" />
  </g>
</svg>
